<svg width="32" height="32" viewBox="0 0 32 32" fill="none" xmlns="http://www.w3.org/2000/svg">
<g id="material-symbols:content-copy-outline">
<path id="Vector" d="M25.3333 29.3334C26.0667 29.3334 26.6947 29.072 27.2173 28.5494C27.74 28.0267 28.0009 27.3991 28 26.6667V8.00002H25.3333V26.6667H10.6667V29.3334H25.3333ZM20 24C20.7333 24 21.3613 23.7387 21.884 23.216C22.4067 22.6934 22.6676 22.0658 22.6667 21.3334V5.33336C22.6667 4.60002 22.4053 3.97202 21.8827 3.44936C21.36 2.92669 20.7324 2.6658 20 2.66669H8C7.26666 2.66669 6.63866 2.92802 6.116 3.45069C5.59333 3.97336 5.33244 4.60091 5.33333 5.33336V21.3334C5.33333 22.0667 5.59466 22.6947 6.11733 23.2174C6.64 23.74 7.26755 24.0009 8 24H20ZM20 21.3334H8V5.33336H20V21.3334Z" fill="#887F7F"/>
</g>
</svg>
