<svg width="31" height="27" viewBox="0 0 31 27" fill="none" xmlns="http://www.w3.org/2000/svg">
<g id="iconamoon:eye-off-duotone">
<g id="Group">
<path id="Vector" opacity="0.16" d="M11.625 13.5C11.6252 14.1674 11.8525 14.8198 12.2783 15.3747C12.7041 15.9296 13.3092 16.362 14.0172 16.6174C14.7252 16.8728 15.5042 16.9397 16.2557 16.8095C17.0073 16.6793 17.6977 16.358 18.2396 15.8861L22.5796 19.6661C20.4468 20.7955 17.996 21.387 15.5 21.375C9.47566 21.375 4.64999 18.1091 2.58333 13.5C3.74712 10.9046 5.78666 8.73452 8.42166 7.33502L12.7604 11.1139C12.3999 11.4269 12.1141 11.7988 11.9192 12.2083C11.7244 12.6178 11.6244 13.0568 11.625 13.5Z" fill="#887F7F"/>
<path id="Vector_2" d="M13.8596 5.70713C14.4041 5.65211 14.9518 5.62469 15.5 5.625C21.5243 5.625 26.35 8.89088 28.4167 13.5C27.9164 14.6212 27.2405 15.6767 26.4081 16.6365M8.42166 7.33388C5.78666 8.7345 3.74583 10.9046 2.58333 13.5C4.65 18.1091 9.47566 21.375 15.5 21.375C17.9957 21.3865 20.446 20.7945 22.5783 19.665M12.7617 11.115C12.4018 11.4284 12.1164 11.8005 11.9216 12.21C11.7268 12.6195 11.6266 13.0584 11.6266 13.5017C11.6266 13.9449 11.7268 14.3838 11.9216 14.7934C12.1164 15.2029 12.4018 15.575 12.7617 15.8884C13.1215 16.2018 13.5487 16.4504 14.0189 16.62C14.4891 16.7897 14.993 16.877 15.5019 16.877C16.0108 16.877 16.5148 16.7897 16.985 16.62C17.4551 16.4504 17.8823 16.2018 18.2422 15.8884" stroke="#887F7F" stroke-width="2" stroke-linecap="round" stroke-linejoin="round"/>
<path id="Vector_3" d="M5.16666 4.5L25.8333 22.5" stroke="#887F7F" stroke-width="2" stroke-linecap="round"/>
</g>
</g>
</svg>
